<svg transform="scale(4)" id="nimPYwQqRH" xmlns="http://www.w3.org/2000/svg" viewBox="0 0 500 500" class="pbimage_pbimage__wrapper__image__0LEis false"><title>Content Creation</title><defs><style> .cls-1{fill:#f4a28c;} .cls-2{fill:#a5a5a5;} .cls-3, .cls-4{fill:#e6e6e6;} .cls-4{opacity:.3;} .cls-5{fill:#ce8172;opacity:.31;} .cls-6{opacity:.58;} .cls-6, .cls-7, .cls-8{fill:#68e1fd;} .cls-9{fill:#fff;opacity:.46;} .cls-10{fill:#24285b;} .cls-11{fill:#000001;opacity:.08;} .cls-7{opacity:.73;} .cls-12{fill:#ffd200;}
 .cls-6, .cls-7, .cls-8{fill:#570d9e;}
 .cls-3, .cls-4{fill:#b6b4b4;}
 .cls-12{fill:#c7008b;}
 .cls-11{fill:#000001;}
 .cls-10{fill:#24285B;}
 .cls-9{fill:#FFFFFF;}
 .cls-5{fill:#CE8172;}
 .cls-2{fill:#a210a8;}
 .cls-1{fill:#F4A28C;}</style></defs><path class="cls-4" id="bg" d="m388.25,54.52c49.45,16.93,96.55,63.37,97.98,123.34,1.43,59.76-14.95,121.05-105.04,144.73-84.62,22.24-285.54,30.29-339.08-44.24C-8.37,208.08,7.66,94.01,95.91,57.53c61.87-25.57,195.77-36.08,292.35-3.01Z"></path><g id="lighting"><rect class="cls-3" x="440.36" y="214.69" width="7.28" height="227.54"></rect><rect class="cls-3" x="422.5" y="401.83" width="7.28" height="67.34" transform="translate(309.34 -162.51) rotate(33.33)"></rect><rect class="cls-3" x="458.21" y="401.83" width="7.28" height="67.34" transform="translate(1087.02 545.65) rotate(146.67)"></rect><rect class="cls-2" x="437.58" y="208.29" width="12.8" height="12.8" fill="#a210a8"></rect><rect class="cls-3" x="428.57" y="192.84" width="30.51" height="20.85" rx="3.19" ry="3.19"></rect><path class="cls-2" d="m381.93,161.4c22.51-5.47,45.92,11.31,52.28,37.49,6.37,26.18-6.72,51.84-29.23,57.32l-23.05-94.81Z" fill="#a210a8"></path></g><g id="camera"><circle class="cls-2" cx="63.79" cy="260.13" r="9.79"></circle><rect class="cls-3" x="53.08" y="276.85" width="4.87" height="40.4" transform="translate(111.03 594.11) rotate(-180)"></rect><path class="cls-3" d="m42.97,253.17h6.89s1.49-5.95,1.49-5.95h8.34s1.49,5.95,1.49,5.95h6.89c1.17,0,2.12.95,2.12,2.12v13.19c0,1.17-.95,2.12-2.12,2.12h-25.09c-1.17,0-2.12-.95-2.12-2.12v-13.19c0-1.17.95-2.12,2.12-2.12Z"></path><rect class="cls-12" x="44.37" y="256.54" width="16.41" height="9.23" transform="translate(105.14 522.3) rotate(-180)"></rect><rect class="cls-2" x="50.16" y="270.6" width="10.71" height="7.21" transform="translate(111.03 548.41) rotate(-180)"></rect><rect class="cls-3" x="52.54" y="319" width="5.95" height="147.25" transform="translate(111.03 785.25) rotate(-180)"></rect><rect class="cls-3" x="73.25" y="318.01" width="5.95" height="147.25" transform="translate(232.11 758.91) rotate(168.02)"></rect><rect class="cls-3" x="31.83" y="318.01" width="5.95" height="147.25" transform="translate(82.07 1.31) rotate(11.98)"></rect><rect class="cls-2" x="47.11" y="316.54" width="16.82" height="4.92" transform="translate(111.03 638) rotate(-180)"></rect></g><g id="content_creator"><path class="cls-8" d="m204.86,165.79s-38.7,39.68-60.92,73.36c-22.22,33.68-85.16-50.01-85.16-50.01l-12.38,14.69s51.25,105.65,115.84,79.13c64.59-26.53,106.13-102.66,42.62-117.16Z"></path><path class="cls-9" d="m204.86,165.79s-38.7,39.68-60.92,73.36c-22.22,33.68-85.16-50.01-85.16-50.01l-12.38,14.69s51.25,105.65,115.84,79.13c64.59-26.53,106.13-102.66,42.62-117.16Z"></path><path class="cls-8" d="m288.36,163.63s-42.89-29.18-89.45,6.49c-46.56,35.66,13.74,161.54,13.74,161.54l87.14,2.9s106.82-95.03-11.44-170.92Z"></path><path class="cls-11" d="m277.72,193.47s-38.56,17.85-13.84,55.2c24.71,37.35.18,76-53.7,77.56l58.79,14.7,66.82-37.35-7.95-50.47-50.11-59.63Z"></path><path class="cls-1" d="m233.63,111.48s-.58,12.12,1.76,20.07c.95,3.23,4.39,5.1,7.6,4.1,3.99-1.24,9.02-4.07,10.12-10.52l3.21-10.73s1.78-6.79-5.24-11.44c-7.02-4.65-17.47,1.12-17.45,8.52Z"></path><polygon class="cls-1" points="255.75 116.35 263.5 155.33 241.71 158.07 244.82 128.6 255.75 116.35"></polygon><path class="cls-10" d="m236.65,111.87c2.12.03,6.01-.13,11.14-1.29,0,0-3.58,5.42.43,11.09,4.01,5.67,10.07,2.9,10.07,2.9l-.8-15.56c-.09-4.54-2.64-8.69-6.68-10.77-1.65-.85-3.47-1.69-5.3-2.34-4.55-1.63-11,1.62-15.14-1.25-1.81-1.26-4.32-.1-4.56,2.09-.52,4.76.62,12.18,7.12,14.53,1.19.43,2.45.58,3.72.6Z"></path><path class="cls-1" d="m246.91,121.36s-.09-4.67,3.43-4.45c3.52.22,3.69,6.97-1.05,7.78l-2.38-3.34Z"></path><path class="cls-1" d="m233.66,119.13l-3.2,4.8c-.79,1.19-.08,2.79,1.33,3l4.67.69-2.8-8.49Z"></path><path class="cls-5" d="m243.86,135.02s4.02-.98,6.93-4.5c0,0-.03,7.28-7.73,14.76l.8-10.25Z"></path><path class="cls-8" d="m274.32,211.18c-4.11-24.84,26.35-40.17,44.3-22.52,12.71,12.5,24.38,30.29,26.02,54.18,3.8,55.2-12.03,104.26-44.94,97.45-32.92-6.8-81.88-76.43-81.88-76.43l10.76-10.9s47.99,49.51,69.51,42.55c15.29-4.95-17.34-45.46-23.77-84.34Z"></path><path class="cls-9" d="m274.32,211.18c-4.11-24.84,26.35-40.17,44.3-22.52,12.71,12.5,24.38,30.29,26.02,54.18,3.8,55.2-12.03,104.26-44.94,97.45-32.92-6.8-81.88-76.43-81.88-76.43l10.76-10.9s47.99,49.51,69.51,42.55c15.29-4.95-17.34-45.46-23.77-84.34Z"></path><path class="cls-1" d="m228.57,252.97s-6.2-26.87-10.76-26.45c-4.55.42,0,16.96,0,16.96,0,0-7.09-13.58-10.88-14.01-3.8-.42,5.91,17.72,5.91,17.72,0,0-11.82-10.69-15.61-7.46-3.8,3.24,15.67,15.47,15.67,15.47,0,0-2.34,8.86,4.92,8.65l10.76-10.9Z"></path><path class="cls-1" d="m58.79,189.14s-16.43-18.76-22.76-8.1c-6.33,10.66,14.09,18.39,14.09,18.39l8.67-10.29Z"></path><rect class="cls-3" x="107.98" y="325.65" width="276.67" height="20.05"></rect><rect class="cls-3" x="116.33" y="345.7" width="259.97" height="118.21"></rect><polygon class="cls-12" points="209.69 449.89 209.69 359.71 286.43 404.8 209.69 449.89"></polygon><path class="cls-11" d="m376.3,345.7v33.79c-120.22-3.82-208.1,33.45-259.97,64.64v-98.44h259.97Z"></path><polygon class="cls-10" points="123.37 325.62 118.58 298.55 152.54 298.55 155.48 321.63 171.05 321.84 171.05 325.62 123.37 325.62"></polygon><path class="cls-6" d="m358.01,311.48s-11.17-3.05-13.61-13.45c0,0,17.31-3.5,17.81,14.37l-4.2-.92Z"></path><path class="cls-7" d="m359.38,310.38s-7.81-12.34-.94-23.88c0,0,13.17,8.36,7.32,23.91l-6.38-.03Z"></path><path class="cls-8" d="m361.39,310.38s4.13-13.03,16.59-15.5c0,0,2.34,8.46-8.07,15.54l-8.52-.04Z"></path><polygon class="cls-10" points="353.29 310.09 355.55 325.59 369.82 325.65 371.93 310.17 353.29 310.09"></polygon></g></svg>