<svg transform="scale(4)" id="o50cPy2P3q" xmlns="http://www.w3.org/2000/svg" xmlns:xlink="http://www.w3.org/1999/xlink" viewBox="0 0 500 500" class="pbimage_pbimage__wrapper__image__0LEis false"><title>Facetime </title><defs><style> .cls-1{fill:#eca596;} .cls-1, .cls-2, .cls-3, .cls-4, .cls-5, .cls-6, .cls-7, .cls-8, .cls-9, .cls-10, .cls-11, .cls-12, .cls-13, .cls-14, .cls-15, .cls-16, .cls-17{stroke-width:0px;} .cls-2, .cls-16{fill:#68e2fd;} .cls-3{fill:#d58b80;} .cls-4{fill:url(#linear-gradient-o50cPy2P3q);} .cls-5{fill:#f2bbab;} .cls-6{opacity:.65;} .cls-6, .cls-17{fill:#fff;} .cls-7{fill:#68defa;} .cls-8, .cls-14{fill:#68e1fd;} .cls-9{fill:url(#linear-gradient-4-o50cPy2P3q);} .cls-10{fill:url(#linear-gradient-2-o50cPy2P3q);} .cls-11{fill:url(#linear-gradient-3-o50cPy2P3q);} .cls-12{fill:url(#linear-gradient-5-o50cPy2P3q);} .cls-13{fill:url(#linear-gradient-6-o50cPy2P3q);} .cls-14{opacity:.39;} .cls-15{fill:#473f47;} .cls-16{isolation:isolate;opacity:.18;}
 .cls-8, .cls-14{fill:#580f9e;}
 .cls-6, .cls-17{fill:#FFFFFF;}
 .cls-2, .cls-16{fill:#580f9e;}
 .cls-15{fill:#473F47;}
 .cls-7{fill:#6d8cde;}
 .cls-5{fill:#F2BBAB;}
 .cls-3{fill:#D58B80;}
 .cls-1{fill:#ECA596;}</style><linearGradient id="linear-gradient-o50cPy2P3q" x1="236.89" y1="600.33" x2="251.68" y2="131.93" gradientUnits="userSpaceOnUse"><stop offset="0" stop-color="#000" style="stop-color: rgb(0, 0, 0);"></stop><stop offset=".08" stop-color="#000" stop-opacity=".69" style="stop-color: rgb(0, 0, 0);"></stop><stop offset=".21" stop-color="#000" stop-opacity=".32" style="stop-color: rgb(0, 0, 0);"></stop><stop offset="1" stop-color="#000" stop-opacity="0" style="stop-color: rgb(0, 0, 0);"></stop></linearGradient><linearGradient id="linear-gradient-2-o50cPy2P3q" x1="285.45" y1="139.2" x2="297.12" y2="211.2" xlink:href="#linear-gradient-o50cPy2P3q"></linearGradient><linearGradient id="linear-gradient-3-o50cPy2P3q" x1="285.49" y1="143.17" x2="289.95" y2="177.7" xlink:href="#linear-gradient-o50cPy2P3q"></linearGradient><linearGradient id="linear-gradient-4-o50cPy2P3q" x1="50.64" y1="302.81" x2="262.5" y2="381.61" xlink:href="#linear-gradient-o50cPy2P3q"></linearGradient><linearGradient id="linear-gradient-5-o50cPy2P3q" x1="150.28" y1="270.14" x2="226.7" y2="293.56" xlink:href="#linear-gradient-o50cPy2P3q"></linearGradient><linearGradient id="linear-gradient-6-o50cPy2P3q" x1="372.8" y1="306.35" x2="421.51" y2="306.35" xlink:href="#linear-gradient-o50cPy2P3q"></linearGradient></defs><path class="cls-16" id="background" d="M257.58,30.71c-41.66,15.8-68.55,57.73-109.21,75.95-21.24,9.51-46.22,12.61-63.14,28.59-14.32,13.53-19.95,33.72-23.74,53.05-9.04,46.17-10.97,94.42.82,139.97,11.78,45.55,38.2,88.28,77.46,114.2,39.27,25.92,91.85,33.04,134.45,13.05,30.23-14.19,53.79-40.45,84.71-53.08,19.24-7.86,40.64-10.12,58.99-19.87,27.51-14.62,44.84-46.47,42.17-77.51-3.98-46.21-46.2-80.58-57.18-125.65-11.22-46.08,3.08-96.49-34.8-133.82-24.97-24.6-80.26-26.36-110.53-14.88Z"></path><rect class="cls-2" x="141.25" y="64.16" width="213.34" height="373.31" rx="23.43" ry="23.43"></rect><rect class="cls-4" x="141.25" y="64.16" width="213.34" height="373.31" rx="23.43" ry="23.43"></rect><rect class="cls-17" x="157.67" y="76.31" width="179.57" height="341.86" rx="14.17" ry="14.17"></rect><rect class="cls-2" x="218.29" y="84.2" width="57.93" height="10.48" rx="5.24" ry="5.24"></rect><rect class="cls-2" x="45.45" y="108.23" width="82.89" height="59.03" rx="8.74" ry="8.74"></rect><path class="cls-17" d="M99.52,132.63l8.18-4.96c1.63-.99,3.71.18,3.71,2.09v15.99c0,1.91-2.1,3.08-3.73,2.08l-8.18-5.06c-.72-.44-1.16-1.23-1.16-2.08v-5.97c0-.86.44-1.65,1.18-2.09Z"></path><rect class="cls-17" x="63.85" y="124.76" width="35.75" height="25.99" rx="5.93" ry="5.93"></rect><polygon class="cls-2" points="104.87 165.15 115.37 180.14 115.37 163.3 104.87 165.15"></polygon><rect class="cls-8" x="251.85" y="118.17" width="74.91" height="92.55"></rect><path class="cls-6" d="M326.76,193.69v17.03h-67.8c.27-4.36.24-8.3-.22-11.63-2.44-17.27,14.38-22.65,22.03-24.19,2.21-.44,3.64-.56,3.64-.56l.86-.11,9.67-1.23,5.05-.63,1.9-.24c4.62,2.34,9.19,4.85,13.54,7.64,3.28,2.11,5.19,3.81,6.22,5.59,2.23,1.99,3.83,5.39,5.11,8.34Z"></path><g id="character_1"><path class="cls-7" d="M300.86,170.95s3.87,1.53,4.13,2.77c.26,1.24-8.63,11.13-16.34,9.21-7.71-1.93-11.22-7.23-11.22-7.23l3.99-1.1,19.43-3.64Z" fill="#6d8cde"></path><path class="cls-10" d="M300.86,170.95s3.87,1.53,4.13,2.77c.26,1.24-8.43,9.97-16.34,9.21-11.22-1.09-11.22-7.23-11.22-7.23l3.99-1.1,19.43-3.64Z"></path><path class="cls-5" d="M283.52,171.61c-.42,1.69-1.63,3.16-3.43,3.47.32,1.25,1.24,2.29,2.34,2.98,1.1.68,2.37,1.04,3.64,1.29,2.16.43,4.42.56,6.56.05,3.39-.81,6.75-3.01,8.94-5.71.37-.45.71-1.02.56-1.58-.15-.57-.75-.88-1.27-1.17-.81-.44-1.58-.97-2.16-1.68-.51-.63-.86-1.38-1.17-2.13-.71-1.75-1.22-3.57-1.52-5.43-.16-.95-.26-1.92-.3-2.88-.03-.64.19-1.67-.16-2.24-.13-.2-.32-.32-.51-.41-1-.46-2.13-.3-3.14.1s-1.97,1.01-2.97,1.46c-1.3.58-2.69.9-3.9,1.72-1.53,1.04-2.44,2.8-1.89,4.85.49,1.86.85,3.8.71,5.73-.04.56-.18,1.07-.31,1.6Z" fill="#F2BBAB"></path><path class="cls-11" d="M292.74,163.11c0,1.09,0,2.19-.29,3.23-.3,1.07-.9,2.01-1.52,2.91-.64.93-1.33,1.84-2.2,2.54s-1.95,1.16-3.04,1.08c-.54-.04-1.12-.25-1.41-.73-.17-.28-.22-.62-.27-.95-.2-1.44-.32-2.9-.36-4.36,0-.31-.01-.62.08-.91.12-.36.38-.66.63-.93,2.11-2.34,4.31-4.6,6.17-7.17.24-.34.87-1.66,1.34-1.62.53.04.54,1.26.6,1.73.25,1.72.26,3.47.26,5.2Z"></path><path class="cls-5" d="M268.9,148.6c-.22,1.46-.44,2.93-.42,4.41.05,3.87,1.3,10.39,4.87,12.51,1.41.84,3.03,1.25,4.64,1.55,1.67.3,3.38.49,5.07.29,3.47-.41,6.59-2.45,8.96-5.02,4.34-4.68,6.92-10.41,6.65-16.87-.18-4.4-2.49-8.76-6.28-11.01-3.77-2.23-8.45-2.2-12.8-1.65-2.09.27-4.17.64-6.23,1.11-.96.22-2,.52-2.56,1.33-.99,1.43-.51,3.8-.72,5.47-.34,2.63-.78,5.25-1.18,7.88Z" fill="#F2BBAB"></path><path class="cls-15" d="M305.49,135.67c-2.94-6.29-11.79-7.71-17.85-9.48-.86-.25-1.76-.53-2.36-1.19s-.72-1.84,0-2.38c-1.7.6-3.39,1.19-5.09,1.79.16-1.16.32-2.33.49-3.49-1.8,1.04-3.69,1.94-5.63,2.68.14-1.03.27-2.07.41-3.1-4.67,2.49-7.4,8.11-6.7,13.32.73,5.41,8.6,7.25,13.09,7.7,1.24.12,2.49.19,3.68.54s2.34,1.01,3.01,2.06c1.05,1.66.64,3.8.76,5.75,0,.12.02.25.1.34.06.06.14.09.22.12,2.11.61,4.22-2.12,6.06.15.8.98.88,2.41.45,3.61s-1.28,2.18-2.21,3.04c-.21.2-.44.42-.45.71,0,.17.07.34.14.5.71,1.58.9,3.39.55,5.09.41-.51.83-1.03,1.24-1.54-.13.65-.27,1.3-.4,1.95,1.52-1.23,3.05-2.48,4.17-4.09.97-1.4,1.58-2.99,2.19-4.57.58-1.48,1.41-2.81,2.05-4.22.7-1.56.82-3.69,1.13-5.37.34-1.87.63-3.75.91-5.63.21-1.42.42-2.89.05-4.28Z" fill="#473F47"></path></g><g id="Character_1"><path class="cls-1" d="M267.66,292.08c-.17.63-.34,1.26-.52,1.89-.99,3.44-1.54,4.76,2.5,5.97,11.63,3.5,23.26,7,34.89,10.49,2.51.76,5.12,1.52,7.72,1.19,4.23-.54,4.95-3.62,6.84-6.66,2.24-3.62,5.6-6.7,8.19-10.09,7.23-9.48,13.73-19.48,20.22-29.48,3.1-4.77,6.2-9.55,9.3-14.32,1.48-2.27,2.97-4.57,3.89-7.12.77-2.13,1.13-4.39,1.83-6.54.61-1.88,1.5-3.72,1.58-5.7s-.95-4.2-2.88-4.66c-1.82-.43-3.59.83-4.85,2.2s-2.42,2.99-4.17,3.64c-3.25,1.2-6.54-1.49-8.97-3.96-2.08,2.6-.63,6.4.8,9.4s3.65,6.57,1.29,8.92l-38.21,43.43s-34.03-19.39-34.06-19.41c.49.28-3.05,11.72-3.28,12.61-.71,2.73-1.36,5.48-2.09,8.21Z"></path><path class="cls-15" d="M186.42,202.5c-2.42,3.36-1.08,8.2,1.43,11.48.4.52.83,1.04.93,1.68.18,1.13-.7,2.11-1.48,2.95-4.02,4.36-6.83,10.46-5.3,16.19,1.06,3.99,4.14,7.61,3.59,11.71-.55,4.15-4.54,6.82-8.15,8.95,2.83,1.57,6.38,1.34,9.37.11s5.5-3.38,7.85-5.59c-.47,1.5-.95,3.01-1.42,4.51,1.6-3.37,6.01-4.25,8.61-6.93,1.19-1.22,1.96-2.79,2.6-4.37,3.27-7.95,3.88-16.72,4.25-25.31.1-2.34.18-4.72-.43-6.98-1.37-5.06-5.44-7.11-9.97-8.71-4.08-1.45-8.53-4.35-11.89.31Z"></path><circle class="cls-7" cx="208.78" cy="215.73" r="11.97"></circle><path class="cls-7" d="M189.52,418.17c-1.95-12.7-1-24.67-.01-32.69.57-4.74,1.17-8.09,1.2-9.43.03-1.52,2.12-7.44,4.67-14.17,4.07-10.76,9.36-23.55,9.36-23.55,0,0-5.73-24.26-14.03-31.76-.36-.33-.73-.68-1.1-1.08-2.2-2.27-4.63-5.6-6.93-9.32-1.89-3.05-3.7-6.38-5.22-9.63,0,0,0-.01-.01-.02-.25-.54-.5-1.08-.73-1.61-1.52-3.42-2.67-6.69-3.24-9.39-.6-2.9-.5-5.13.61-6.17h0c4.64-4.31,39.87-3.31,39.87-3.31l32.82-.06,21.94-.04s8.39,4.01,8.39,5.33c0,.21-.07.98-.2,2.2-.49,4.85-1.87,16.7-3.39,27.64-.49,3.47-.97,6.84-1.46,9.87-1.09,6.9-2.16,9.79-3.61,12.83-1.62,3.4-3.7,6.99-6.79,16.62-.14.46-.3.94-.45,1.44-3.11,9.97,5.82,44.47,15.49,76.3h-87.18Z"></path><path class="cls-9" d="M268.49,323.69l-.04.12-6.79,16.62s-43.41-.83-45.02,6.16c-.99,4.31.01,17.99.45,30.15.06,1.62.1,3.22.13,4.77.12,5.62.02,10.55-.59,13.52-.56,2.77.62,11.72,2.61,23.14h-29.73c-1.95-12.7-1-24.67-.01-32.69.57-4.74,1.17-8.09,1.2-9.43.03-1.52,2.12-7.44,4.67-14.17,4.07-10.76,9.36-23.55,9.36-23.55,0,0-5.73-24.26-14.03-31.76-.36-.33-.73-.68-1.1-1.08-2.2-2.27-4.63-5.6-6.93-9.32l12.49-3.31s.01.04.01.07c.02.2.12.87.33,1.89,1.13,5.34,5.36,20.13,18.45,24.14,16.08,4.94,54.54,4.74,54.54,4.74Z"></path><path class="cls-12" d="M174.08,269.34l11.49,10.03-8.12,7.17s-6.01-8.57-3.37-17.2Z"></path><path class="cls-15" d="M264.62,217.57c1.55-1.19,2.99-2.55,4.34-3.97,1.62-1.71,4.66-4.18,4.8-6.65.08-1.49-.54-2.97-1.49-4.12-.26-.31-.55-.63-.61-1.02-.08-.52.26-.99.54-1.43,1.81-2.84,1.91-6.62.51-9.69-2.22-4.88-8.23-7.68-13.39-6.23-.78.22-1.6.57-1.98,1.29-1.43-2.05-3.5-3.66-5.84-4.54-1.16-.44-2.44-.7-3.66-.43s-2.34,1.19-2.57,2.41c-.79-2.82-1.9-6.02-4.63-7.08-.92-.36-1.93-.42-2.92-.45-1.71-.05-3.42-.02-5.13.1-1.44.1-2.91.26-4.21.89-1.24.6-2.25,1.59-3.15,2.63-2.31,2.64-4.13,5.72-5.34,9.01-1.65-.68-3.64-.49-5.14.48-2.13,1.38-2.33,3.93-4.02,5.23-.86.66-2.68.99-3.78,1.82-1.42,1.07-2.7,2.43-3.88,3.75-.73.82-1.44,1.7-1.79,2.74-.4,1.18-.32,2.46-.18,3.7.24,2.21.62,4.41,1.13,6.58.57,2.4,1.46,4.97,3.55,6.28-.55-.35-2.01,6.55-2.02,7.16-.08,2.58.77,4.94,1.21,7.43.76,4.29,1.53,8.74,6.53,10.03,6.84,1.76,14.11-4.26,14.11-4.26l39.04-21.66Z"></path><path class="cls-1" d="M242.74,248.33s-3.97,10.92,2.98,16.54c6.95,5.63-3.57,20.08-20.35,11.42-6.38-3.29-11.42-10.26-11.42-10.26,0,0,9.34-23.07,8.33-34.93-1-11.86,20.45,17.23,20.45,17.23Z"></path><path class="cls-3" d="M223.66,232.69c.06,3.55.37,7.14.97,10.64.94,5.39,2.07,10.59,5.05,15.29.18.28.36.56.55.84,1.87,2.74,4.42,5.3,7.68,5.94.51.1,1.05.15,1.53-.04.56-.21.96-.7,1.23-1.23.86-1.7.5-3.67-.02-5.41-.45-1.51-.42-3.07-.53-4.65l-.31-4.47c-.02-.3.09-1.79-.14-2,0,0-16.02-14.91-16.02-14.91Z"></path><path class="cls-1" d="M260.94,208.13s2.81,36.56-10.09,41.03-21.18-1.49-24.49-9.26c-3.31-7.78-4.63-9.76-4.63-9.76,0,0,.33,2.69-3.81-.72-4.14-3.41-6.62-8.87-3.64-10.03,2.98-1.16,6.95,1.16,6.95,1.16,0,0-.17-10.59,6.95-14.06,7.11-3.47,31.6-4.3,32.76,1.65Z"></path><path class="cls-1" d="M195.59,294.66l-22.48,40.7,27.78,33.09s19.52,7.71,18.53,11.63c-.99,3.92-10.92-1.61-12.24,0s.33,10.43,5.4,14.73c5.07,4.3,1.1,5.74.55,5.51s-6.84-1.65-6.84-1.65c0,0-1.54.99-5.51-1.21-3.97-2.21-6.29-2.32-7.61-4.41s-3.31-5.18-4.41-10.48-1.43-10.15-1.43-10.15c0,0-32.1-30.28-35.41-39.79-3.31-9.51,30.44-55.68,30.44-55.68,0,0,11.25,7.12,13.24,17.71Z"></path><path class="cls-15" d="M243.36,213.55c-2.28,1.1-4.85,1.43-7.38,1.51-.41.01-.85.04-1.15.31-.25.23-.33.58-.41.91-.38,1.49-1.1,2.97-2.37,3.84-1.31.9-2.99,1.02-4.57.88-3.93-.36-7.69-2.25-10.32-5.19-.2-.22-.39-.45-.48-.74-.12-.39,0-.81.11-1.2.76-2.68,1.52-5.37,2.28-8.05.52-1.84,1.06-3.71,2.16-5.28,1.17-1.67,2.91-2.87,4.7-3.84,4.57-2.46,9.92-3.65,15.02-2.71,3.71.68,8.6,3.69,8.99,7.85.43,4.66-2.41,9.67-6.59,11.69Z"></path></g><path class="cls-15" d="M341.21,248.18l12.75-2c1.71-.27,3.05-1.59,3.36-3.29l5.79-32.46c.49-2.74-1.87-5.14-4.61-4.71l-12.75,2c-1.71.27-3.05,1.59-3.36,3.29l-5.79,32.46c-.49,2.74,1.87,5.14,4.61,4.71Z"></path><path class="cls-1" d="M351.66,223.72c-.94-.02-2.13.22-2.33,1.13-.19.84.63,1.55,1.38,1.98,2.83,1.62,6.18,2.51,8.39,4.89-3.01-1.27-6.23-2.06-9.48-2.34-.51-.04-1.09-.05-1.46.31-.4.4-.35,1.1-.03,1.57s.83.76,1.32,1.04c2.36,1.33,4.71,2.66,7.07,3.99-1.76-.6-3.62-.91-5.48-.9-.61,0-1.39.17-1.49.77-.08.48.35.89.75,1.18,1.66,1.23,3.41,2.34,5.24,3.31.49.26,1,.52,1.34.96s.47,1.09.15,1.54c.72.24,1.53-.04,2.1-.54s.94-1.19,1.26-1.87c.96-2.03,1.63-4.2,2-6.42.3-1.79.86-4.66.19-6.41-.58-1.51-3.05-2.34-4.44-2.88-2.06-.81-4.26-1.26-6.47-1.31Z"></path><circle class="cls-15" cx="247.97" cy="381.37" r="31.37"></circle><circle class="cls-7" cx="184.79" cy="381.37" r="9.59"></circle><path class="cls-7" d="M230.86,389.56h6.75c2.41,0,3.98-2.54,2.89-4.58-.73-1.44-.12-3.25,1.2-4.1,3.01-1.81,9.4-1.93,12.54,0,1.44.73,1.93,2.66,1.2,4.1-1.08,2.05.48,4.58,2.89,4.58h6.75c1.81-.12,3.25-1.57,3.25-3.25v-4.58c-.12-4.7-9.04-8.56-20.37-8.56s-20.37,3.74-20.37,8.56v4.58c.12,1.81,1.57,3.25,3.25,3.25h.03Z"></path><circle class="cls-7" cx="310.13" cy="381.37" r="9.59"></circle><rect class="cls-14" x="175.67" y="124.97" width="61.42" height="12.78"></rect><rect class="cls-14" x="175.67" y="150.3" width="61.42" height="12.78"></rect><polygon class="cls-7" points="421.51 280.62 395.54 325.97 360.33 308.44 421.51 280.62"></polygon><polygon class="cls-7" points="381.35 318.9 387.88 321.21 380.88 332.09 372.8 314.65 421.51 280.62 381.35 318.9"></polygon><polygon class="cls-13" points="381.35 318.9 387.42 321.92 380.88 332.09 372.8 314.65 421.51 280.62 381.35 318.9"></polygon></svg>